<svg width="556" height="548" viewBox="0 0 556 548" fill="none" xmlns="http://www.w3.org/2000/svg">
<path d="M252.25 81.5574C265.09 74.1441 280.91 74.1441 293.75 81.5574L428.419 159.309C441.259 166.722 449.169 180.422 449.169 195.249V350.751C449.169 365.578 441.259 379.278 428.419 386.691L293.75 464.443C280.91 471.856 265.09 471.856 252.25 464.443L117.581 386.691C104.741 379.278 96.8308 365.578 96.8308 350.751V195.249C96.8308 180.422 104.741 166.722 117.581 159.309L252.25 81.5574Z" stroke="white" stroke-opacity="0.6"/>
<path d="M252.25 45.5574C265.09 38.1441 280.91 38.1441 293.75 45.5574L459.596 141.309C472.436 148.722 480.346 162.422 480.346 177.249V368.751C480.346 383.578 472.436 397.278 459.596 404.691L293.75 500.443C280.91 507.856 265.09 507.856 252.25 500.443L86.4039 404.691C73.5638 397.278 65.6539 383.578 65.6539 368.751V177.249C65.6539 162.422 73.5638 148.722 86.4039 141.309L252.25 45.5574Z" stroke="white" stroke-opacity="0.4"/>
<path d="M252.25 12.5574C265.09 5.14411 280.91 5.14411 293.75 12.5574L488.175 124.809C501.015 132.222 508.925 145.922 508.925 160.749V385.251C508.925 400.078 501.015 413.778 488.175 421.191L293.75 533.443C280.91 540.856 265.09 540.856 252.25 533.443L57.8251 421.191C44.9849 413.778 37.0751 400.078 37.0751 385.251V160.749C37.0751 145.922 44.9849 132.222 57.8251 124.809L252.25 12.5574Z" stroke="white" stroke-opacity="0.2"/>
<path d="M252 110.124C264.995 102.622 281.005 102.622 294 110.124L403.554 173.376C416.549 180.878 424.554 194.744 424.554 209.749V336.251C424.554 351.256 416.549 365.122 403.554 372.624L294 435.876C281.005 443.378 264.995 443.378 252 435.876L142.446 372.624C129.451 365.122 121.446 351.256 121.446 336.251V209.749C121.446 194.744 129.451 180.878 142.446 173.376L252 110.124Z" fill="white"/>
<path d="M200.44 328.32C193.32 328.32 187.68 327.04 183.52 324.48C179.36 321.92 176.36 318.28 174.52 313.56C172.76 308.76 171.88 303.04 171.88 296.4V260.16C171.88 253.52 172.76 247.84 174.52 243.12C176.36 238.4 179.36 234.8 183.52 232.32C187.68 229.84 193.32 228.6 200.44 228.6C207.64 228.6 213.32 229.88 217.48 232.44C221.72 234.92 224.72 238.52 226.48 243.24C228.32 247.88 229.24 253.52 229.24 260.16V296.4C229.24 303.04 228.32 308.76 226.48 313.56C224.72 318.28 221.72 321.92 217.48 324.48C213.32 327.04 207.64 328.32 200.44 328.32ZM200.44 314.04C203 314.04 204.88 313.48 206.08 312.36C207.28 311.16 208.08 309.6 208.48 307.68C208.88 305.68 209.08 303.56 209.08 301.32V255.36C209.08 253.12 208.88 251.04 208.48 249.12C208.08 247.2 207.28 245.68 206.08 244.56C204.88 243.36 203 242.76 200.44 242.76C198.04 242.76 196.24 243.36 195.04 244.56C193.84 245.68 193.04 247.2 192.64 249.12C192.24 251.04 192.04 253.12 192.04 255.36V301.32C192.04 303.56 192.2 305.68 192.52 307.68C192.92 309.6 193.72 311.16 194.92 312.36C196.12 313.48 197.96 314.04 200.44 314.04ZM243.101 327L244.781 229.8H265.781L277.781 291.12L290.621 229.8H310.901L312.581 327H298.181L296.621 261.12L284.261 327H271.901L258.941 260.64L257.621 327H243.101ZM352.043 328.32C346.043 328.32 341.043 327.24 337.043 325.08C333.043 322.84 330.003 319.52 327.923 315.12C325.923 310.64 324.763 304.96 324.443 298.08L341.483 295.2C341.643 299.2 342.043 302.56 342.683 305.28C343.403 307.92 344.443 309.92 345.803 311.28C347.243 312.56 349.003 313.2 351.083 313.2C353.643 313.2 355.363 312.4 356.243 310.8C357.203 309.2 357.683 307.36 357.683 305.28C357.683 301.2 356.683 297.8 354.683 295.08C352.763 292.28 350.203 289.48 347.003 286.68L336.923 277.92C333.323 274.88 330.363 271.44 328.043 267.6C325.803 263.76 324.683 259.04 324.683 253.44C324.683 245.44 327.003 239.32 331.643 235.08C336.363 230.76 342.803 228.6 350.963 228.6C355.843 228.6 359.843 229.4 362.963 231C366.083 232.6 368.483 234.76 370.163 237.48C371.923 240.12 373.123 243.04 373.763 246.24C374.483 249.36 374.923 252.48 375.083 255.6L358.163 258.12C358.003 255.16 357.723 252.56 357.323 250.32C357.003 248.08 356.283 246.32 355.163 245.04C354.123 243.76 352.523 243.12 350.363 243.12C348.043 243.12 346.323 244 345.203 245.76C344.083 247.44 343.523 249.32 343.523 251.4C343.523 254.84 344.283 257.68 345.803 259.92C347.403 262.08 349.563 264.36 352.283 266.76L362.123 275.4C366.203 278.92 369.683 282.96 372.563 287.52C375.523 292 377.003 297.56 377.003 304.2C377.003 308.76 375.963 312.88 373.883 316.56C371.803 320.24 368.883 323.12 365.123 325.2C361.443 327.28 357.083 328.32 352.043 328.32Z" fill="#2D71D8"/>
<g filter="url(#filter0_b_537_9160)">
<rect y="281" width="556" height="267" fill="#2D71D8" fill-opacity="0.05"/>
</g>
<defs>
<filter id="filter0_b_537_9160" x="-10" y="271" width="576" height="287" filterUnits="userSpaceOnUse" color-interpolation-filters="sRGB">
<feFlood flood-opacity="0" result="BackgroundImageFix"/>
<feGaussianBlur in="BackgroundImageFix" stdDeviation="5"/>
<feComposite in2="SourceAlpha" operator="in" result="effect1_backgroundBlur_537_9160"/>
<feBlend mode="normal" in="SourceGraphic" in2="effect1_backgroundBlur_537_9160" result="shape"/>
</filter>
</defs>
</svg>
